<svg viewBox="0 0 256 256" xmlns="http://www.w3.org/2000/svg"><rect fill="#ff807d" height="59" rx="29.5" width="252" x="2.49" y="196.32"/><path d="m53.89 121.55h19.07v19.07h-19.07z"/><path d="m63.42 147.45h28.38v28.38h-28.38z"/><path d="m81.41 104.05h36.57v36.57h-36.57z"/><path d="m86.26 207.52c-13.14 0-26.04-3.7-37.42-10.89-15.88-10.03-26.91-25.65-31.04-43.97-4.14-18.32-.89-37.16 9.14-53.04s25.65-26.91 43.97-31.04c18.32-4.14 37.16-.89 53.04 9.14s26.91 25.65 31.04 43.97c4.14 18.32.89 37.16-9.14 53.04s-25.65 26.91-43.97 31.04c-5.19 1.17-10.43 1.75-15.63 1.75zm.24-122.69c-3.87 0-7.76.43-11.63 1.3-13.63 3.08-25.25 11.28-32.71 23.1s-9.88 25.83-6.8 39.46 11.28 25.25 23.1 32.71 25.83 9.88 39.46 6.8 25.25-11.28 32.71-23.1 9.88-25.83 6.8-39.46-11.28-25.25-23.1-32.71c-8.47-5.35-18.06-8.1-27.84-8.1z"/><path d="m164.7 194.79c-1.64 0-3.31-.45-4.8-1.39l-26.31-16.61c-4.2-2.65-5.46-8.21-2.8-12.42 2.65-4.2 8.21-5.46 12.42-2.8l26.31 16.61c4.2 2.65 5.46 8.21 2.8 12.42-1.71 2.71-4.63 4.19-7.62 4.19z"/><path d="m218.05 244.61c-3.26 0-6.45-.92-9.27-2.7l-47.08-29.74c-3.94-2.49-6.67-6.36-7.69-10.9-1.03-4.54-.22-9.21 2.26-13.14l5.42-8.58c5.13-8.12 15.92-10.56 24.04-5.43l47.08 29.74c3.94 2.49 6.67 6.36 7.69 10.9 1.03 4.54.22 9.21-2.26 13.14l-5.42 8.58c-2.49 3.94-6.36 6.67-10.9 7.69-1.29.29-2.58.43-3.87.43zm-46.26-47.35 46.11 29.12 4.81-7.61-46.11-29.12z"/></svg>