<svg fill="none" viewBox="0 0 101 52" xmlns="http://www.w3.org/2000/svg" xmlns:xlink="http://www.w3.org/1999/xlink"><clipPath id="a"><path d="m0 0h100.414v52h-100.414z"/></clipPath><clipPath id="b"><path d="m.224121 0h32.7241v51.9736h-32.7241z"/></clipPath><g clip-path="url(#a)" fill="#030328"><g clip-path="url(#b)"><path d="m32.03 11.6196c-.4267-.1195-.8732-.239-1.3395-.3529.1472.5576.2288 1.1307.2431 1.7075v.4098l-1.9499 5.2876c.9891 9.1551.5058 10.4044.3476 10.8142-.2515.6517-.9241 1.7075-2.0516 3.2443l1.1077 10.3076 4.0298-2.9085c.1644-.1185.2984-.2749.3908-.456.0923-.1812.1405-.3819.1405-.5855v-26.2387c-.0011-.2772-.0911-.5467-.2566-.7682s-.3977-.3833-.6619-.4612z"/><path d="m32.9485 39.0905c0 .2036-.0482.4044-.1405.5855-.0924.1812-.2264.3375-.3908.4561l-4.0298 2.9084-1.1077-10.3076c1.1303-1.5311 1.8001-2.5926 2.0516-3.2443.1582-.4098.6415-1.6591-.3476-10.8142l1.9499-5.2876v-.4098c-.0143-.5768-.0959-1.1499-.2431-1.7075.4663.1139.9128.2334 1.3395.3529.2647.078.4972.2402.6627.4623.1656.2221.2553.4922.2558.77z"/><path d="m13.2797 12.1603c2.1591-.6356 4.4536-.6356 6.6127 0l.2515-.4155.2826-1.92662c-.9637-.04554-2.6253-.11383-3.8094-.11383-1.2914 0-2.5829.03699-3.8545.10529l.2826 1.93516z"/><path d="m16.6087 9.70715c1.184 0 2.8457.06831 3.8093.11384l-.2826 1.92661-.2515.4155c-2.159-.6356-4.4536-.6356-6.6126 0l-.2515-.4126-.2826-1.9352c1.2886-.07115 2.58-.10815 3.8715-.10815z"/><path d="m4.18885 18.6744-1.94423-5.2847v-.4127c.01416-.5766.09477-1.1496.2402-1.7075-.46345.1139-.91277.2334-1.33666.3529-.264897.0776-.497632.2397-.663243.4619s-.255155.4925-.255181.7704v26.2358c-.000061.2036.048106.4044.140503.5855.092397.1812.226359.3375.390771.4561l4.04672 2.9283 1.11058-10.2962c-1.13037-1.5482-1.81707-2.6182-2.0714-3.2756-.1639-.4126-.64713-1.662.34194-10.8142z"/><path d="m4.80776 43.0604-4.052369-2.9255c-.164412-.1186-.298375-.2749-.390772-.4561-.092396-.1811-.140559-.3818-.140498-.5855v-26.2386c.000026-.2779.08957-.5482.255181-.7704.16561-.2222.398346-.3843.663238-.4619.42389-.1195.87321-.239 1.33666-.3529-.14543.5579-.22604 1.1309-.2402 1.7075v.4127l1.94988 5.2847c-.98907 9.1522-.50584 10.4016-.34759 10.8142.25434.6574.93256 1.7274 2.0714 3.2756z"/><path d="m27.7706 28.8797c.3165-.8168.1357-4.6786-.486-10.3333v-.0853l1.9781-5.3758v-.1082c0-2.3449-3.0152-8.62003-4.804-11.95251l-.4635-.853753c-.0282-.052692-.0721-.095099-.1256-.1211877s-.1138-.0345357-.1723-.0241352c-.0585.0104006-.1123.0391229-.1537.0820719-.0414.042948-.0683.097938-.0768.15716l-1.7238 12.060654-1.105 1.8299-.2826-.0939c-1.2208-.4239-2.4987-.658-3.7895-.6944-1.2869.0307-2.5609.265-3.7755.6944l-.2825.0939-1.088-1.8299-1.71818-12.083417c-.00778-.060121-.03441-.116173-.07603-.1599828-.04162-.0438096-.09604-.07309196-.15534-.08357401-.0593-.01048209-.12037-.00161787-.17432.02529891-.05395.0269167-.09795.0704796-.12559.1243409l-.46062.853754c-1.78315 3.33817-4.80406 9.61328-4.80406 11.95258v.1081l1.97814 5.3758v.0854c-.6217 5.6547-.80256 9.5165-.48605 10.3332.28259.7314 1.41295 2.2995 2.35116 3.5488l-1.35927 12.6498 1.35362.9761 1.0145.7314 6.67484 4.835c.3358.2422.7385.3724 1.1515.3724.4131 0 .8158-.1302 1.1516-.3724l8.246-5.9421.8224-.5947-1.3593-12.6612c.9354-1.2436 2.046-2.7918 2.3257-3.5203zm-3.3261-21.05924.2148-1.5083c.0077-.0479.0303-.09212.0644-.12635.0342-.03424.0782-.05675.1258-.06432s.0964.00019.1394.02216c.0429.02197.0779.05704.0999.10021 1.0937 2.2966 2.1477 4.81234 2.2608 5.96204.0024.0338-.0024.0678-.0142.0996l-.5284 1.4229c-.0145.0401-.0399.0753-.0733.1015-.0334.0263-.0734.0425-.1155.047-.0421.0044-.0847-.0031-.1227-.0218-.0381-.0187-.0702-.0478-.0926-.084-1.3141-2.0831-1.8284-5.04851-1.9527-5.89373-.0043-.01962-.0061-.03968-.0057-.05976zm-5.2449 14.82404c.6048-.6034 1.6956-1.4429 3.0661-1.4429 1.8256 0 .7743 1.4059.4183 1.827-.0266.0313-.0595.0563-.0966.0735-.037.0172-.0774.0262-.1182.0262h-3.0718c-.0553-.0008-.1091-.018-.1549-.0493-.0457-.0313-.0813-.0755-.1024-.127s-.0266-.1081-.0161-.1628c.0106-.0546.0369-.105.0756-.1447zm1.5712 2.6124c.0464.1175.1234.2202.2228.2974.0995.0771.2178.1258.3424.1409.1767.025.3562-.0179.5029-.1202.1466-.1023.2496-.2565.2884-.4319-.1027-.0016-.2015-.04-.2787-.1084-.0771-.0683-.1276-.162-.1424-.2644-.0093-.0667-.0029-.1347.0187-.1985s.0578-.1215.1057-.1686l-.0198-.0171h1.2349v.0626c.007.2174-.0298.4339-.108.6366-.0783.2027-.1964.3874-.3473.543-.1509.1555-.3315.2788-.5309.3623s-.4135.1256-.6294.1236c-.2159-.0019-.4293-.0477-.6272-.1348-.1979-.087-.3763-.2135-.5244-.3717-.1482-.1582-.263-.345-.3377-.549-.0747-.2041-.1076-.4212-.0969-.6384v-.0342h1.218c-.1435.0866-.252.2215-.3063.3809-.0542.1593-.0509.3329.0096.4899zm-9.8539-4.0553c1.3762 0 2.4613.8395 3.0661 1.4429.039.0401.0654.091.0758.1462s.0044.1122-.0174.164c-.0218.0517-.0582.0958-.1048.1267s-.1013.0472-.1571.0469h-3.0576c-.0408 0-.0812-.009-.1183-.0262-.037-.0172-.07-.0422-.0965-.0735-.3702-.4211-1.42143-1.827.4041-1.827zm.5651 3.5687c-.0171.1003-.0686.1914-.1456.2574-.0769.066-.1744.1028-.2754.104.0344.1789.1357.3376.2829.4435s.3292.1509.5083.1257c.1153-.0155.2247-.0601.3181-.1298.0935-.0697.1678-.1621.216-.2686.0728-.158.0859-.3373.037-.5043-.0488-.1671-.1564-.3105-.3026-.4036h1.1841c.0087.0007.017.0045.0232.0108.0062.0062.01.0146.0107.0234.0107.2172-.0222.4344-.0969.6384-.0746.2041-.1895.3908-.3377.5491-.1481.1582-.3265.2846-.5244.3717-.1979.087-.4112.1329-.6272.1348-.2159.0019-.43-.0401-.6294-.1237-.1994-.0835-.38-.2067-.5309-.3623s-.269-.3402-.3473-.5429c-.0782-.2028-.115-.4193-.108-.6366v-.0627h1.2349l-.0197.0171c.0476.0457.0841.1018.1067.164.0225.0622.0305.1288.0232.1946zm-4.66837-10.9935c-.02287.036-.05524.0649-.09348.0835-.03824.0185-.08084.026-.12306.0216-.04222-.0045-.08238-.0206-.116-.0467s-.05938-.0611-.07439-.1011l-.52562-1.4229c-.0131-.0314-.01796-.0657-.01413-.0996.10738-1.1383 1.16145-3.66545 2.26073-5.96205.02131-.04367.05596-.07932.09886-.10171.04291-.0224.0918-.03036.13953-.02272.04772.00763.09176.03047.12565.06516.03389.03468.05586.0794.06268.12758l.21476 1.50829c.00281.02173.00281.04373 0 .06546-.12999.83668-.64431 3.80209-1.95553 5.88519zm3.99307 25.4988c-.89869-2.4788-.90999-5.9478-.90999-6.0958v-.2362l-.14695-.185c-.38715-.481-.84778-1.0758-1.31971-1.7075-.02805-.0367-.04681-.0797-.05465-.1253-.00783-.0456-.00451-.0924.00969-.1364s.03884-.0839.07178-.1161c.03295-.0323.07322-.056.1173-.069l2.42183-.7115c.0514-.0152.0975-.0448.1328-.0854l2.3116-2.6551c.0371-.0426.086-.073.1404-.0874s.1118-.0122.1649.0065c.0531.0186.0995.0528.1332.0981.0337.0454.0532.0998.056.1564l.4041 7.6097c.0023.0619-.0156.1229-.0508.1736-.1611.2391-.6217.9619-.6217 1.4059 0 .5692.8336 1.3148 1.656 1.9096.0091-.0243.0195-.048.0311-.0712.2825-.5179.664-.6119.8477-.2134.0628.2943.0847.596.065.8964h.0142v.7001c.0001.0433-.0095.0862-.0283.1252-.1498.3045-.876 1.6079-2.4218 1.6079-.6754.0199-2.2975-.1964-3.0237-2.1941zm6.8895 2.8885c.0235-.0005.0466.0065.066.0199s.0342.0325.0422.0547c.0081.0223.0091.0465.0029.0693-.0062.0229-.0194.0432-.0376.0581-.3398.2622-.756.4043-1.184.4043-.4281 0-.8443-.1421-1.1841-.4043-.018-.0148-.0311-.0348-.0374-.0574-.0063-.0225-.0055-.0465.0022-.0686s.022-.0413.041-.0549c.0189-.0136.0416-.021.0648-.0211zm2.0658.8338c-.3089.578-.7674 1.0609-1.3269 1.3976-.5595.3366-1.1991.5143-1.8509.5143-.6517 0-1.2913-.1777-1.8508-.5143-.5595-.3367-1.018-.8196-1.3269-1.3976-.0244-.0447-.0365-.0951-.0349-.1461s.0168-.1006.0439-.1436c.0272-.0431.0653-.078.1105-.1011.0451-.0231.0956-.0336.1461-.0304h.1696c.1788.0013.3571-.0187.5313-.0597.0548-.0135.1123-.0101.1652.0097s.0987.055.1315.1012c.2168.3095.5043.562.8382.7363s.7045.2652 1.0806.2652.7467-.0909 1.0806-.2652.6213-.4268.8382-.7363c.0328-.0462.0786-.0814.1315-.1012.0528-.0198.1104-.0232.1652-.0097.185.0449.3748.0669.5652.0654h.1328c.0495-.0021.0987.0089.1427.032.0439.0231.081.0574.1077.0995.0266.0421.0418.0904.0439.1403.0022.0499-.0086.0994-.0315.1437zm5.016-11.9354c-.4691.6204-.9326 1.2151-1.3197 1.7075l-.147.1849v.2362c0 .148 0 3.6171-.9099 6.0958-.7234 1.9921-2.3483 2.2141-3.0124 2.2141-1.5458 0-2.2608-1.3034-2.419-1.6079-.0198-.0388-.0304-.0816-.0311-.1252v-.7001h.0141c-.0196-.3004.0023-.6021.065-.8964.1724-.3985.5482-.3045.8478.2134 0 .0228.0198.0484.0311.0712.8223-.5948 1.656-1.3404 1.656-1.9096 0-.444-.4635-1.1668-.6246-1.4059-.0342-.0511-.0511-.112-.048-.1736l.4013-7.6097c.0028-.0566.0223-.111.056-.1564.0337-.0453.0801-.0795.1332-.0981.0531-.0187.1105-.0209.1649-.0065s.1033.0448.1404.0874l2.3116 2.6551c.0361.0411.0832.0707.1357.0854l2.4189.7115c.0403.015.0766.039.1062.0702.0297.0312.0519.0688.0649.1099.0131.0412.0167.0848.0106.1275-.0062.0428-.0219.0835-.046.1193z"/></g><path d="m90.4444 27.882h-.3892v6.7267h-4.8301v-16.748l4.8301-7.5504v15.6269c.9615-1.1783 4.2007-5.6513 4.2007-5.6513h5.9631l-5.6541 5.9831 5.8491 8.3511h-6.1009zm-13.4603-1.0982 1.9801-6.4521h4.7844l-5.6085 14.2312c-1.6711 4.2786-4.0633 7.1729-7.6344 7.1729-1.3735 0-2.5295-.3547-3.1362-.6979l1.9229-2.9743c.2862.0343.5838.0457.8814.0457 1.6482 0 2.8843-1.6016 3.6855-3.5006l-5.8831-14.277h5.4139l2.1174 6.372c.4121 1.2127.7097 3.5235.7097 3.5235s.3777-2.2308.7669-3.4434zm-14.5935-.3318c0-1.8647-.8241-2.7455-2.3922-2.7455-.7669 0-1.5681.2173-2.1175.5491v10.3531h-4.8302v-14.1397l4.7272-.389-.1145 2.3109h.1603c1.0187-1.3728 2.747-2.4139 4.8072-2.4139 2.4723 0 4.6127 1.533 4.6127 5.1594v9.4723h-4.853zm-23.1665 7.4246.435-3.2947c1.5108.7435 3.2163 1.0982 4.647 1.0982 1.0416 0 1.7283-.3547 1.7283-.9838 0-1.8076-6.5127-1.3728-6.5127-6.0975 0-3.0202 2.7699-4.6103 6.238-4.6103 1.7283 0 3.5139.469 4.6699.8809l-.4692 3.2375c-1.2133-.4691-2.8615-.9038-4.235-.9038-.847 0-1.5338.2974-1.5338.8466 0 1.7846 6.6501 1.4299 6.6501 6.0402 0 3.0659-2.7241 4.8277-6.4555 4.8277-2.0602 0-3.7313-.3547-5.1621-1.041z"/></g></svg>