<svg viewBox="0 0 48 48" xmlns="http://www.w3.org/2000/svg" xmlns:xlink="http://www.w3.org/1999/xlink"><clipPath id="a"><path d="m19.99.75s-17.94 10.61-18.56 13.71 12.16 31.71 15.46 32.49 29.39-13.59 30.39-14.91-3.29-19.9-5.45-21.01-18.91-9.79-21.84-10.28z"/></clipPath><path d="m19.99.75s-17.94 10.61-18.56 13.71 12.16 31.71 15.46 32.49 29.39-13.59 30.39-14.91-3.29-19.9-5.45-21.01-18.91-9.79-21.84-10.28z" fill="#7774f1"/><g clip-path="url(#a)"><path d="m41.83 11.04c-.06 4.85-6.04 13.8-8.93 16.61s-16 19.31-16 19.31l19.55 2.53 22.96-17.64z" fill="#5b58d1"/></g></svg>