<svg viewBox="0 0 48 48" xmlns="http://www.w3.org/2000/svg" xmlns:xlink="http://www.w3.org/1999/xlink"><clipPath id="a"><path d="m38.4 7.31c10.25 8.78 7.18 14.14 3.91 19.59-3.26 5.45-16.21 23.59-25.88 19.82-7.65-2.98-14.66-14.94-14.51-22.45.1-4.86 13.42-23.75 22.45-22.78 6.05.65 8.48 1.07 14.03 5.82z"/></clipPath><path d="m38.4 7.31c10.25 8.78 7.18 14.14 3.91 19.59-3.26 5.45-16.21 23.59-25.88 19.82-7.65-2.98-14.66-14.94-14.51-22.45.1-4.86 13.42-23.75 22.45-22.78 6.05.65 8.48 1.07 14.03 5.82z" fill="#3ae668"/><g clip-path="url(#a)"><path d="m1.92 37.67s11.83 3.89 26.04-1.72c14.22-5.61 20.72-16.42 20.72-16.42l-3.27 17.57-3.07 23.61-35.69-1.15z" fill="#24af69"/></g></svg>